<mxfile host="app.diagrams.net" modified="2023-12-20T05:38:14.882Z" agent="Mozilla/5.0 (X11; CrOS x86_64 14541.0.0) AppleWebKit/537.36 (KHTML, like Gecko) Chrome/119.0.0.0 Safari/537.36" etag="Hlj5vvKiU7AT-px3RrwW" version="22.1.11" type="github">
  <diagram name="Page-1" id="4B9jpGBqQ3x6xvoNsicl">
    <mxGraphModel dx="825" dy="447" grid="1" gridSize="10" guides="1" tooltips="1" connect="1" arrows="1" fold="1" page="1" pageScale="1" pageWidth="850" pageHeight="1100" math="0" shadow="0">
      <root>
        <mxCell id="0" />
        <mxCell id="1" parent="0" />
        <mxCell id="4cGv64t_xksQdGtosFKX-18" style="edgeStyle=orthogonalEdgeStyle;rounded=0;orthogonalLoop=1;jettySize=auto;html=1;exitX=0.5;exitY=1;exitDx=0;exitDy=0;entryX=0.5;entryY=0;entryDx=0;entryDy=0;" edge="1" parent="1" source="4cGv64t_xksQdGtosFKX-2" target="4cGv64t_xksQdGtosFKX-12">
          <mxGeometry relative="1" as="geometry" />
        </mxCell>
        <mxCell id="4cGv64t_xksQdGtosFKX-22" style="edgeStyle=orthogonalEdgeStyle;rounded=0;orthogonalLoop=1;jettySize=auto;html=1;exitX=0.25;exitY=1;exitDx=0;exitDy=0;entryX=0.5;entryY=0;entryDx=0;entryDy=0;" edge="1" parent="1" source="4cGv64t_xksQdGtosFKX-2" target="4cGv64t_xksQdGtosFKX-19">
          <mxGeometry relative="1" as="geometry" />
        </mxCell>
        <mxCell id="4cGv64t_xksQdGtosFKX-2" value="" style="rounded=0;whiteSpace=wrap;html=1;" vertex="1" parent="1">
          <mxGeometry x="330" y="120" width="120" height="60" as="geometry" />
        </mxCell>
        <mxCell id="4cGv64t_xksQdGtosFKX-6" value="Pi" style="text;strokeColor=none;fillColor=none;html=1;fontSize=24;fontStyle=1;verticalAlign=middle;align=center;" vertex="1" parent="1">
          <mxGeometry x="340" y="130" width="100" height="40" as="geometry" />
        </mxCell>
        <mxCell id="4cGv64t_xksQdGtosFKX-27" style="edgeStyle=orthogonalEdgeStyle;rounded=0;orthogonalLoop=1;jettySize=auto;html=1;exitX=0.75;exitY=0;exitDx=0;exitDy=0;entryX=0.75;entryY=1;entryDx=0;entryDy=0;" edge="1" parent="1" source="4cGv64t_xksQdGtosFKX-7" target="4cGv64t_xksQdGtosFKX-12">
          <mxGeometry relative="1" as="geometry" />
        </mxCell>
        <mxCell id="4cGv64t_xksQdGtosFKX-36" style="edgeStyle=orthogonalEdgeStyle;rounded=0;orthogonalLoop=1;jettySize=auto;html=1;exitX=0.25;exitY=0;exitDx=0;exitDy=0;entryX=0.75;entryY=1;entryDx=0;entryDy=0;" edge="1" parent="1" source="4cGv64t_xksQdGtosFKX-7" target="4cGv64t_xksQdGtosFKX-33">
          <mxGeometry relative="1" as="geometry" />
        </mxCell>
        <mxCell id="4cGv64t_xksQdGtosFKX-7" value="" style="rounded=0;whiteSpace=wrap;html=1;" vertex="1" parent="1">
          <mxGeometry x="240" y="470" width="320" height="80" as="geometry" />
        </mxCell>
        <mxCell id="4cGv64t_xksQdGtosFKX-8" value="Keyboard" style="text;strokeColor=none;fillColor=none;html=1;fontSize=24;fontStyle=1;verticalAlign=middle;align=center;" vertex="1" parent="1">
          <mxGeometry x="340" y="490" width="100" height="40" as="geometry" />
        </mxCell>
        <mxCell id="4cGv64t_xksQdGtosFKX-25" style="edgeStyle=orthogonalEdgeStyle;rounded=0;orthogonalLoop=1;jettySize=auto;html=1;exitX=0.25;exitY=1;exitDx=0;exitDy=0;entryX=0.5;entryY=0;entryDx=0;entryDy=0;" edge="1" parent="1" source="4cGv64t_xksQdGtosFKX-12" target="4cGv64t_xksQdGtosFKX-7">
          <mxGeometry relative="1" as="geometry" />
        </mxCell>
        <mxCell id="4cGv64t_xksQdGtosFKX-12" value="" style="whiteSpace=wrap;html=1;aspect=fixed;" vertex="1" parent="1">
          <mxGeometry x="350" y="250" width="80" height="80" as="geometry" />
        </mxCell>
        <mxCell id="4cGv64t_xksQdGtosFKX-13" value="Usb&lt;br&gt;Midi" style="text;strokeColor=none;fillColor=none;html=1;fontSize=24;fontStyle=1;verticalAlign=middle;align=center;" vertex="1" parent="1">
          <mxGeometry x="340" y="270" width="100" height="40" as="geometry" />
        </mxCell>
        <mxCell id="4cGv64t_xksQdGtosFKX-37" style="edgeStyle=orthogonalEdgeStyle;rounded=0;orthogonalLoop=1;jettySize=auto;html=1;exitX=0.5;exitY=1;exitDx=0;exitDy=0;entryX=1;entryY=0.5;entryDx=0;entryDy=0;" edge="1" parent="1" source="4cGv64t_xksQdGtosFKX-19" target="4cGv64t_xksQdGtosFKX-32">
          <mxGeometry relative="1" as="geometry" />
        </mxCell>
        <mxCell id="4cGv64t_xksQdGtosFKX-19" value="" style="whiteSpace=wrap;html=1;aspect=fixed;" vertex="1" parent="1">
          <mxGeometry x="250" y="240" width="80" height="80" as="geometry" />
        </mxCell>
        <mxCell id="4cGv64t_xksQdGtosFKX-20" value="Usb&lt;br&gt;Sound" style="text;strokeColor=none;fillColor=none;html=1;fontSize=24;fontStyle=1;verticalAlign=middle;align=center;" vertex="1" parent="1">
          <mxGeometry x="240" y="250" width="100" height="40" as="geometry" />
        </mxCell>
        <mxCell id="4cGv64t_xksQdGtosFKX-28" value="" style="whiteSpace=wrap;html=1;aspect=fixed;" vertex="1" parent="1">
          <mxGeometry x="120" y="370" width="80" height="80" as="geometry" />
        </mxCell>
        <mxCell id="4cGv64t_xksQdGtosFKX-29" value="" style="ellipse;whiteSpace=wrap;html=1;aspect=fixed;" vertex="1" parent="1">
          <mxGeometry x="120" y="370" width="80" height="80" as="geometry" />
        </mxCell>
        <mxCell id="4cGv64t_xksQdGtosFKX-38" style="edgeStyle=orthogonalEdgeStyle;rounded=0;orthogonalLoop=1;jettySize=auto;html=1;exitX=1;exitY=0.5;exitDx=0;exitDy=0;entryX=0.5;entryY=1;entryDx=0;entryDy=0;" edge="1" parent="1" source="4cGv64t_xksQdGtosFKX-32" target="4cGv64t_xksQdGtosFKX-19">
          <mxGeometry relative="1" as="geometry" />
        </mxCell>
        <mxCell id="4cGv64t_xksQdGtosFKX-32" value="" style="triangle;whiteSpace=wrap;html=1;direction=north;" vertex="1" parent="1">
          <mxGeometry x="250" y="350" width="80" height="60" as="geometry" />
        </mxCell>
        <mxCell id="4cGv64t_xksQdGtosFKX-35" style="edgeStyle=orthogonalEdgeStyle;rounded=0;orthogonalLoop=1;jettySize=auto;html=1;exitX=0.25;exitY=1;exitDx=0;exitDy=0;entryX=1;entryY=0.5;entryDx=0;entryDy=0;" edge="1" parent="1" source="4cGv64t_xksQdGtosFKX-33" target="4cGv64t_xksQdGtosFKX-28">
          <mxGeometry relative="1" as="geometry" />
        </mxCell>
        <mxCell id="4cGv64t_xksQdGtosFKX-33" value="Split" style="text;strokeColor=none;fillColor=none;html=1;fontSize=24;fontStyle=1;verticalAlign=middle;align=center;" vertex="1" parent="1">
          <mxGeometry x="240" y="370" width="100" height="40" as="geometry" />
        </mxCell>
        <mxCell id="4cGv64t_xksQdGtosFKX-34" value="Speaker" style="text;strokeColor=none;fillColor=none;html=1;fontSize=24;fontStyle=1;verticalAlign=middle;align=center;" vertex="1" parent="1">
          <mxGeometry x="110" y="370" width="100" height="40" as="geometry" />
        </mxCell>
        <mxCell id="4cGv64t_xksQdGtosFKX-41" style="edgeStyle=orthogonalEdgeStyle;rounded=0;orthogonalLoop=1;jettySize=auto;html=1;exitX=0.855;exitY=0;exitDx=0;exitDy=4.35;exitPerimeter=0;entryX=0.75;entryY=1;entryDx=0;entryDy=0;" edge="1" parent="1" source="4cGv64t_xksQdGtosFKX-39" target="4cGv64t_xksQdGtosFKX-33">
          <mxGeometry relative="1" as="geometry" />
        </mxCell>
        <mxCell id="4cGv64t_xksQdGtosFKX-39" value="" style="shape=cylinder3;whiteSpace=wrap;html=1;boundedLbl=1;backgroundOutline=1;size=15;" vertex="1" parent="1">
          <mxGeometry x="120" y="460" width="60" height="80" as="geometry" />
        </mxCell>
        <mxCell id="4cGv64t_xksQdGtosFKX-40" value="Mic" style="text;strokeColor=none;fillColor=none;html=1;fontSize=24;fontStyle=1;verticalAlign=middle;align=center;" vertex="1" parent="1">
          <mxGeometry x="100" y="480" width="100" height="40" as="geometry" />
        </mxCell>
      </root>
    </mxGraphModel>
  </diagram>
</mxfile>
